<mxfile host="app.diagrams.net" modified="2020-12-29T07:32:56.364Z" agent="5.0 (Windows NT 10.0; Win64; x64) AppleWebKit/537.36 (KHTML, like Gecko) Chrome/87.0.4280.88 Safari/537.36 Edg/87.0.664.66" etag="9dakUGzxmI1Ugy8uxTWy" version="14.1.2" type="github">
  <diagram id="80TL9VMRlGG1l_jEiYui" name="Page-1">
    <mxGraphModel dx="926" dy="533" grid="1" gridSize="10" guides="1" tooltips="1" connect="1" arrows="1" fold="1" page="1" pageScale="1" pageWidth="827" pageHeight="1169" math="0" shadow="0">
      <root>
        <mxCell id="0" />
        <mxCell id="1" parent="0" />
        <mxCell id="-Cd8GNip0Jo4CQQZTlMl-50" value="" style="rounded=0;whiteSpace=wrap;html=1;fillColor=#f8cecc;strokeColor=#b85450;" vertex="1" parent="1">
          <mxGeometry x="100" y="270" width="620" height="670" as="geometry" />
        </mxCell>
        <mxCell id="-Cd8GNip0Jo4CQQZTlMl-21" style="edgeStyle=orthogonalEdgeStyle;rounded=0;orthogonalLoop=1;jettySize=auto;html=1;exitX=0;exitY=1;exitDx=0;exitDy=0;entryX=0.5;entryY=0;entryDx=0;entryDy=0;" edge="1" parent="1" source="-Cd8GNip0Jo4CQQZTlMl-11" target="-Cd8GNip0Jo4CQQZTlMl-14">
          <mxGeometry relative="1" as="geometry" />
        </mxCell>
        <mxCell id="-Cd8GNip0Jo4CQQZTlMl-22" style="edgeStyle=orthogonalEdgeStyle;rounded=0;orthogonalLoop=1;jettySize=auto;html=1;exitX=1;exitY=1;exitDx=0;exitDy=0;" edge="1" parent="1" source="-Cd8GNip0Jo4CQQZTlMl-11" target="-Cd8GNip0Jo4CQQZTlMl-16">
          <mxGeometry relative="1" as="geometry" />
        </mxCell>
        <mxCell id="-Cd8GNip0Jo4CQQZTlMl-11" value="TmpMange" style="ellipse;whiteSpace=wrap;html=1;fillColor=#dae8fc;strokeColor=#6c8ebf;" vertex="1" parent="1">
          <mxGeometry x="350" y="320" width="120" height="80" as="geometry" />
        </mxCell>
        <mxCell id="-Cd8GNip0Jo4CQQZTlMl-37" style="edgeStyle=orthogonalEdgeStyle;rounded=0;orthogonalLoop=1;jettySize=auto;html=1;exitX=1;exitY=0.5;exitDx=0;exitDy=0;entryX=0;entryY=0.5;entryDx=0;entryDy=0;" edge="1" parent="1" source="-Cd8GNip0Jo4CQQZTlMl-14" target="-Cd8GNip0Jo4CQQZTlMl-20">
          <mxGeometry relative="1" as="geometry" />
        </mxCell>
        <mxCell id="-Cd8GNip0Jo4CQQZTlMl-40" style="edgeStyle=orthogonalEdgeStyle;rounded=0;orthogonalLoop=1;jettySize=auto;html=1;exitX=0.5;exitY=1;exitDx=0;exitDy=0;" edge="1" parent="1" source="-Cd8GNip0Jo4CQQZTlMl-14" target="-Cd8GNip0Jo4CQQZTlMl-33">
          <mxGeometry relative="1" as="geometry" />
        </mxCell>
        <mxCell id="-Cd8GNip0Jo4CQQZTlMl-14" value="公司管理员" style="whiteSpace=wrap;html=1;fillColor=#bac8d3;strokeColor=#23445d;" vertex="1" parent="1">
          <mxGeometry x="150" y="430" width="120" height="60" as="geometry" />
        </mxCell>
        <mxCell id="-Cd8GNip0Jo4CQQZTlMl-39" style="edgeStyle=orthogonalEdgeStyle;rounded=0;orthogonalLoop=1;jettySize=auto;html=1;exitX=0.5;exitY=1;exitDx=0;exitDy=0;" edge="1" parent="1" source="-Cd8GNip0Jo4CQQZTlMl-16" target="-Cd8GNip0Jo4CQQZTlMl-35">
          <mxGeometry relative="1" as="geometry" />
        </mxCell>
        <mxCell id="-Cd8GNip0Jo4CQQZTlMl-16" value="个人账户" style="whiteSpace=wrap;html=1;fillColor=#d5e8d4;strokeColor=#82b366;" vertex="1" parent="1">
          <mxGeometry x="550" y="430" width="120" height="60" as="geometry" />
        </mxCell>
        <mxCell id="-Cd8GNip0Jo4CQQZTlMl-38" style="edgeStyle=orthogonalEdgeStyle;rounded=0;orthogonalLoop=1;jettySize=auto;html=1;exitX=1;exitY=0.5;exitDx=0;exitDy=0;" edge="1" parent="1" source="-Cd8GNip0Jo4CQQZTlMl-20" target="-Cd8GNip0Jo4CQQZTlMl-16">
          <mxGeometry relative="1" as="geometry" />
        </mxCell>
        <mxCell id="-Cd8GNip0Jo4CQQZTlMl-20" value="任务市场" style="rounded=1;whiteSpace=wrap;html=1;fillColor=#fff2cc;strokeColor=#d6b656;" vertex="1" parent="1">
          <mxGeometry x="354" y="430" width="120" height="60" as="geometry" />
        </mxCell>
        <mxCell id="-Cd8GNip0Jo4CQQZTlMl-43" value="" style="edgeStyle=orthogonalEdgeStyle;rounded=0;orthogonalLoop=1;jettySize=auto;html=1;" edge="1" parent="1" source="-Cd8GNip0Jo4CQQZTlMl-33" target="-Cd8GNip0Jo4CQQZTlMl-41">
          <mxGeometry relative="1" as="geometry" />
        </mxCell>
        <mxCell id="-Cd8GNip0Jo4CQQZTlMl-33" value="揭榜名单" style="whiteSpace=wrap;html=1;rounded=1;fillColor=#bac8d3;strokeColor=#23445d;" vertex="1" parent="1">
          <mxGeometry x="150" y="580" width="120" height="60" as="geometry" />
        </mxCell>
        <mxCell id="-Cd8GNip0Jo4CQQZTlMl-42" value="" style="edgeStyle=orthogonalEdgeStyle;rounded=0;orthogonalLoop=1;jettySize=auto;html=1;" edge="1" parent="1" source="-Cd8GNip0Jo4CQQZTlMl-35" target="-Cd8GNip0Jo4CQQZTlMl-41">
          <mxGeometry relative="1" as="geometry" />
        </mxCell>
        <mxCell id="-Cd8GNip0Jo4CQQZTlMl-35" value="个人任务列表" style="whiteSpace=wrap;html=1;rounded=1;fillColor=#d5e8d4;strokeColor=#82b366;" vertex="1" parent="1">
          <mxGeometry x="550" y="580" width="120" height="60" as="geometry" />
        </mxCell>
        <mxCell id="-Cd8GNip0Jo4CQQZTlMl-45" value="" style="edgeStyle=orthogonalEdgeStyle;rounded=0;orthogonalLoop=1;jettySize=auto;html=1;" edge="1" parent="1" source="-Cd8GNip0Jo4CQQZTlMl-41" target="-Cd8GNip0Jo4CQQZTlMl-44">
          <mxGeometry relative="1" as="geometry" />
        </mxCell>
        <mxCell id="-Cd8GNip0Jo4CQQZTlMl-41" value="任务进度" style="whiteSpace=wrap;html=1;rounded=1;fillColor=#fff2cc;strokeColor=#d6b656;" vertex="1" parent="1">
          <mxGeometry x="350" y="580" width="120" height="60" as="geometry" />
        </mxCell>
        <mxCell id="-Cd8GNip0Jo4CQQZTlMl-44" value="任务完成（交易产生）" style="whiteSpace=wrap;html=1;rounded=1;fillColor=#fff2cc;strokeColor=#d6b656;" vertex="1" parent="1">
          <mxGeometry x="350" y="720" width="120" height="60" as="geometry" />
        </mxCell>
        <mxCell id="-Cd8GNip0Jo4CQQZTlMl-49" value="" style="edgeStyle=orthogonalEdgeStyle;rounded=0;orthogonalLoop=1;jettySize=auto;html=1;" edge="1" parent="1" source="-Cd8GNip0Jo4CQQZTlMl-47" target="-Cd8GNip0Jo4CQQZTlMl-44">
          <mxGeometry relative="1" as="geometry" />
        </mxCell>
        <mxCell id="-Cd8GNip0Jo4CQQZTlMl-47" value="仲裁" style="whiteSpace=wrap;html=1;rounded=1;fillColor=#fa6800;strokeColor=#C73500;fontColor=#ffffff;" vertex="1" parent="1">
          <mxGeometry x="350" y="860" width="120" height="60" as="geometry" />
        </mxCell>
      </root>
    </mxGraphModel>
  </diagram>
</mxfile>
